<mxfile host="www.draw.io" modified="2019-12-03T00:20:35.602Z" agent="Mozilla/5.0 (Windows NT 10.0; Win64; x64; rv:70.0) Gecko/20100101 Firefox/70.0" etag="IcMvyR6Ln9fbZVbIT_lM" version="12.3.3" type="github" pages="1">
  <diagram id="t1UsgaOnbL54JhAW8-JD" name="Page-1">
    <mxGraphModel dx="1182" dy="832" grid="0" gridSize="10" guides="1" tooltips="1" connect="1" arrows="1" fold="1" page="0" pageScale="1" pageWidth="850" pageHeight="1100" math="0" shadow="0">
      <root>
        <mxCell id="0"/>
        <mxCell id="1" parent="0"/>
        <mxCell id="P7QYEdc5I89qMnDsK5VT-13" value="VPC" style="points=[[0,0],[0.25,0],[0.5,0],[0.75,0],[1,0],[1,0.25],[1,0.5],[1,0.75],[1,1],[0.75,1],[0.5,1],[0.25,1],[0,1],[0,0.75],[0,0.5],[0,0.25]];outlineConnect=0;gradientColor=none;html=1;whiteSpace=wrap;fontSize=12;fontStyle=0;shape=mxgraph.aws4.group;grIcon=mxgraph.aws4.group_vpc;strokeColor=#FF9933;fillColor=none;verticalAlign=top;align=left;spacingLeft=30;fontColor=#1C1C1C;dashed=1;strokeWidth=2;" parent="1" vertex="1">
          <mxGeometry x="80" y="-130" width="581" height="451" as="geometry"/>
        </mxCell>
        <mxCell id="P7QYEdc5I89qMnDsK5VT-34" value="Region" style="points=[[0,0],[0.25,0],[0.5,0],[0.75,0],[1,0],[1,0.25],[1,0.5],[1,0.75],[1,1],[0.75,1],[0.5,1],[0.25,1],[0,1],[0,0.75],[0,0.5],[0,0.25]];outlineConnect=0;gradientColor=none;html=1;whiteSpace=wrap;fontSize=12;fontStyle=0;shape=mxgraph.aws4.group;grIcon=mxgraph.aws4.group_region;strokeColor=#FF9933;fillColor=none;verticalAlign=top;align=left;spacingLeft=30;fontColor=#1C1C1C;dashed=0;" parent="1" vertex="1">
          <mxGeometry x="97" y="-110" width="426" height="418" as="geometry"/>
        </mxCell>
        <mxCell id="P7QYEdc5I89qMnDsK5VT-33" value="Availability Zone" style="fillColor=none;strokeColor=#FF9933;dashed=1;verticalAlign=top;fontStyle=0;fontColor=#1C1C1C;" parent="1" vertex="1">
          <mxGeometry x="125" y="-90" width="360" height="383" as="geometry"/>
        </mxCell>
        <mxCell id="P7QYEdc5I89qMnDsK5VT-1" value="Public subnet" style="points=[[0,0],[0.25,0],[0.5,0],[0.75,0],[1,0],[1,0.25],[1,0.5],[1,0.75],[1,1],[0.75,1],[0.5,1],[0.25,1],[0,1],[0,0.75],[0,0.5],[0,0.25]];outlineConnect=0;html=1;whiteSpace=wrap;fontSize=12;fontStyle=0;shape=mxgraph.aws4.group;grIcon=mxgraph.aws4.group_security_group;grStroke=1;strokeColor=#FF9933;fillColor=none;verticalAlign=top;align=left;spacingLeft=30;dashed=1;" parent="1" vertex="1">
          <mxGeometry x="138.5" y="-65" width="320" height="130" as="geometry"/>
        </mxCell>
        <mxCell id="P7QYEdc5I89qMnDsK5VT-3" value="" style="outlineConnect=0;fontColor=#232F3E;gradientColor=none;fillColor=#FF9933;strokeColor=none;dashed=0;verticalLabelPosition=bottom;verticalAlign=top;align=center;html=1;fontSize=12;fontStyle=0;aspect=fixed;pointerEvents=1;shape=mxgraph.aws4.customer_gateway;" parent="1" vertex="1">
          <mxGeometry x="540" y="81.5" width="40" height="40" as="geometry"/>
        </mxCell>
        <mxCell id="P7QYEdc5I89qMnDsK5VT-14" value="&lt;font color=&quot;#1C1C1C&quot;&gt;Private subnet&lt;/font&gt;" style="points=[[0,0],[0.25,0],[0.5,0],[0.75,0],[1,0],[1,0.25],[1,0.5],[1,0.75],[1,1],[0.75,1],[0.5,1],[0.25,1],[0,1],[0,0.75],[0,0.5],[0,0.25]];outlineConnect=0;gradientColor=none;html=1;whiteSpace=wrap;fontSize=12;fontStyle=0;shape=mxgraph.aws4.group;grIcon=mxgraph.aws4.group_security_group;grStroke=1;strokeColor=#FF9933;fillColor=none;verticalAlign=top;align=left;spacingLeft=30;fontColor=#147EBA;dashed=1;" parent="1" vertex="1">
          <mxGeometry x="138" y="140" width="323" height="120" as="geometry"/>
        </mxCell>
        <mxCell id="P7QYEdc5I89qMnDsK5VT-15" value="" style="outlineConnect=0;fontColor=#232F3E;gradientColor=#F78E04;gradientDirection=north;fillColor=#D05C17;strokeColor=#ffffff;dashed=0;verticalLabelPosition=bottom;verticalAlign=top;align=center;html=1;fontSize=12;fontStyle=0;aspect=fixed;shape=mxgraph.aws4.resourceIcon;resIcon=mxgraph.aws4.ec2;" parent="1" vertex="1">
          <mxGeometry x="325" y="-20" width="40" height="40" as="geometry"/>
        </mxCell>
        <mxCell id="P7QYEdc5I89qMnDsK5VT-17" value="" style="outlineConnect=0;fontColor=#232F3E;gradientColor=#F78E04;gradientDirection=north;fillColor=#D05C17;strokeColor=#ffffff;dashed=0;verticalLabelPosition=bottom;verticalAlign=top;align=center;html=1;fontSize=12;fontStyle=0;aspect=fixed;shape=mxgraph.aws4.resourceIcon;resIcon=mxgraph.aws4.ec2;" parent="1" vertex="1">
          <mxGeometry x="220" y="170" width="60" height="60" as="geometry"/>
        </mxCell>
        <mxCell id="P7QYEdc5I89qMnDsK5VT-18" value="" style="outlineConnect=0;fillColor=#f8cecc;strokeColor=#b85450;dashed=0;verticalLabelPosition=bottom;verticalAlign=top;align=center;html=1;fontSize=12;fontStyle=0;aspect=fixed;pointerEvents=1;shape=mxgraph.aws4.internet_alt2;rotation=90;direction=east;" parent="1" vertex="1">
          <mxGeometry x="620" y="75" width="68" height="68" as="geometry"/>
        </mxCell>
        <mxCell id="P7QYEdc5I89qMnDsK5VT-20" value="Internet Gateway" style="text;html=1;resizable=0;autosize=1;align=center;verticalAlign=middle;points=[];fillColor=none;strokeColor=none;rounded=0;dashed=1;rotation=90;" parent="1" vertex="1">
          <mxGeometry x="640" y="91.5" width="110" height="20" as="geometry"/>
        </mxCell>
        <mxCell id="P7QYEdc5I89qMnDsK5VT-21" value="" style="outlineConnect=0;fontColor=#232F3E;gradientColor=#F78E04;gradientDirection=north;fillColor=#D05C17;strokeColor=#ffffff;dashed=0;verticalLabelPosition=bottom;verticalAlign=top;align=center;html=1;fontSize=12;fontStyle=0;aspect=fixed;shape=mxgraph.aws4.resourceIcon;resIcon=mxgraph.aws4.ec2;" parent="1" vertex="1">
          <mxGeometry x="180" y="-20" width="40" height="40" as="geometry"/>
        </mxCell>
        <mxCell id="P7QYEdc5I89qMnDsK5VT-22" value="" style="html=1;endArrow=none;elbow=vertical;startArrow=none;endFill=0;strokeColor=#82b366;rounded=1;edgeStyle=orthogonalEdgeStyle;fillColor=#d5e8d4;" parent="1" source="P7QYEdc5I89qMnDsK5VT-17" target="P7QYEdc5I89qMnDsK5VT-3" edge="1">
          <mxGeometry width="100" relative="1" as="geometry">
            <mxPoint x="345" y="200" as="sourcePoint"/>
            <mxPoint x="680" y="210" as="targetPoint"/>
          </mxGeometry>
        </mxCell>
        <mxCell id="P7QYEdc5I89qMnDsK5VT-28" value="" style="edgeStyle=orthogonalEdgeStyle;html=1;endArrow=none;elbow=vertical;startArrow=none;endFill=0;strokeColor=#82b366;rounded=1;fillColor=#d5e8d4;" parent="1" source="P7QYEdc5I89qMnDsK5VT-21" target="P7QYEdc5I89qMnDsK5VT-3" edge="1">
          <mxGeometry width="100" relative="1" as="geometry">
            <mxPoint x="204" y="-30" as="sourcePoint"/>
            <mxPoint x="480" as="targetPoint"/>
            <Array as="points">
              <mxPoint x="204" y="-43"/>
              <mxPoint x="560" y="-43"/>
            </Array>
          </mxGeometry>
        </mxCell>
        <mxCell id="P7QYEdc5I89qMnDsK5VT-30" value="" style="html=1;endArrow=none;elbow=vertical;startArrow=none;startFill=0;strokeColor=#82b366;rounded=1;endFill=0;edgeStyle=elbowEdgeStyle;fillColor=#d5e8d4;" parent="1" source="P7QYEdc5I89qMnDsK5VT-15" target="P7QYEdc5I89qMnDsK5VT-3" edge="1">
          <mxGeometry width="100" relative="1" as="geometry">
            <mxPoint x="370" y="90" as="sourcePoint"/>
            <mxPoint x="470" y="90" as="targetPoint"/>
          </mxGeometry>
        </mxCell>
        <mxCell id="P7QYEdc5I89qMnDsK5VT-31" value="" style="edgeStyle=orthogonalEdgeStyle;html=1;endArrow=none;elbow=vertical;startArrow=none;endFill=0;strokeColor=#82b366;rounded=1;fillColor=#d5e8d4;" parent="1" source="P7QYEdc5I89qMnDsK5VT-15" edge="1">
          <mxGeometry width="100" relative="1" as="geometry">
            <mxPoint x="380" as="sourcePoint"/>
            <mxPoint x="560" as="targetPoint"/>
          </mxGeometry>
        </mxCell>
        <mxCell id="P7QYEdc5I89qMnDsK5VT-37" value="" style="edgeStyle=orthogonalEdgeStyle;html=1;endArrow=block;elbow=vertical;startArrow=block;startFill=1;endFill=1;strokeColor=#545B64;rounded=0;fontColor=#1C1C1C;" parent="1" edge="1">
          <mxGeometry width="100" relative="1" as="geometry">
            <mxPoint x="587" y="100" as="sourcePoint"/>
            <mxPoint x="637" y="100" as="targetPoint"/>
          </mxGeometry>
        </mxCell>
        <mxCell id="P7QYEdc5I89qMnDsK5VT-38" value="192.168.0.0/24" style="text;html=1;resizable=0;autosize=1;align=center;verticalAlign=middle;points=[];fillColor=none;strokeColor=none;rounded=0;dashed=1;fontColor=#1C1C1C;" parent="1" vertex="1">
          <mxGeometry x="353.5" y="-83" width="90" height="18" as="geometry"/>
        </mxCell>
        <mxCell id="P7QYEdc5I89qMnDsK5VT-39" value="192.168.0.0/16" style="text;html=1;resizable=0;autosize=1;align=center;verticalAlign=middle;points=[];fillColor=none;strokeColor=none;rounded=0;dashed=1;fontColor=#1C1C1C;" parent="1" vertex="1">
          <mxGeometry x="138" y="-128" width="90" height="18" as="geometry"/>
        </mxCell>
        <mxCell id="P7QYEdc5I89qMnDsK5VT-40" value="192.168.1.0/24" style="text;html=1;resizable=0;autosize=1;align=center;verticalAlign=middle;points=[];fillColor=none;strokeColor=none;rounded=0;dashed=1;fontColor=#1C1C1C;" parent="1" vertex="1">
          <mxGeometry x="255" y="140" width="90" height="18" as="geometry"/>
        </mxCell>
        <mxCell id="P7QYEdc5I89qMnDsK5VT-43" value="Main Route Table" style="text;html=1;resizable=0;autosize=1;align=center;verticalAlign=bottom;points=[];fillColor=none;strokeColor=none;rounded=0;dashed=1;fontColor=#1C1C1C;fontSize=17;fontStyle=4" parent="1" vertex="1">
          <mxGeometry x="-125.5" y="-56.5" width="142" height="24" as="geometry"/>
        </mxCell>
        <mxCell id="P7QYEdc5I89qMnDsK5VT-44" value="192.168.0.0/16|local" style="text;html=1;resizable=0;autosize=1;align=center;verticalAlign=middle;points=[];fillColor=none;strokeColor=none;rounded=0;dashed=1;fontSize=18;fontColor=#1C1C1C;rotation=0;direction=west;fontStyle=4" parent="1" vertex="1">
          <mxGeometry x="-149.5" y="-33.5" width="172" height="26" as="geometry"/>
        </mxCell>
        <mxCell id="P7QYEdc5I89qMnDsK5VT-45" value="0.0.0.0/0|Nat Insance" style="text;html=1;align=center;verticalAlign=middle;resizable=0;points=[];;autosize=1;fontSize=17;fontColor=#1C1C1C;fontStyle=4" parent="1" vertex="1">
          <mxGeometry x="-149.5" y="-12" width="171" height="24" as="geometry"/>
        </mxCell>
        <mxCell id="P7QYEdc5I89qMnDsK5VT-51" value="0.0.0.0/0|IGW" style="text;html=1;align=center;verticalAlign=bottom;resizable=0;points=[];;autosize=1;fontSize=18;fontColor=#1C1C1C;fontStyle=4;spacing=2;spacingTop=1;spacingLeft=0;" parent="1" vertex="1">
          <mxGeometry x="714" y="-36" width="125" height="31" as="geometry"/>
        </mxCell>
        <mxCell id="P7QYEdc5I89qMnDsK5VT-56" value="192.168.0.0/16|local" style="text;html=1;align=center;verticalAlign=middle;resizable=0;points=[];;autosize=1;fontSize=17;fontColor=#1C1C1C;direction=south;fontStyle=4" parent="1" vertex="1">
          <mxGeometry x="695" y="-56.5" width="163" height="24" as="geometry"/>
        </mxCell>
        <mxCell id="P7QYEdc5I89qMnDsK5VT-54" value="Custom Route Table" style="text;html=1;align=center;verticalAlign=middle;resizable=0;points=[];;autosize=1;fontSize=17;fontColor=#1C1C1C;direction=south;fontStyle=4" parent="1" vertex="1">
          <mxGeometry x="695" y="-80.5" width="164" height="24" as="geometry"/>
        </mxCell>
        <mxCell id="P7QYEdc5I89qMnDsK5VT-53" value="" style="whiteSpace=wrap;html=1;strokeColor=#1C1C1C;strokeWidth=2;fillColor=none;fontSize=18;fontColor=#1C1C1C;" parent="1" vertex="1">
          <mxGeometry x="-148" y="-60" width="171" height="72" as="geometry"/>
        </mxCell>
        <mxCell id="P7QYEdc5I89qMnDsK5VT-61" value="" style="whiteSpace=wrap;html=1;strokeColor=#1C1C1C;strokeWidth=2;fillColor=none;fontSize=18;fontColor=#1C1C1C;" parent="1" vertex="1">
          <mxGeometry x="695" y="-84" width="164" height="79" as="geometry"/>
        </mxCell>
        <mxCell id="P7QYEdc5I89qMnDsK5VT-62" value="" style="edgeStyle=orthogonalEdgeStyle;html=1;endArrow=none;elbow=vertical;startArrow=block;startFill=1;strokeColor=#545B64;rounded=0;fontSize=18;fontColor=#1C1C1C;exitX=0.702;exitY=1.019;exitDx=0;exitDy=0;exitPerimeter=0;curved=1;entryX=0.022;entryY=0.175;entryDx=0;entryDy=0;entryPerimeter=0;" parent="1" source="P7QYEdc5I89qMnDsK5VT-53" target="P7QYEdc5I89qMnDsK5VT-14" edge="1">
          <mxGeometry width="100" relative="1" as="geometry">
            <mxPoint x="38" y="207" as="sourcePoint"/>
            <mxPoint x="138" y="207" as="targetPoint"/>
          </mxGeometry>
        </mxCell>
        <mxCell id="P7QYEdc5I89qMnDsK5VT-63" value="" style="edgeStyle=orthogonalEdgeStyle;html=1;endArrow=open;elbow=vertical;startArrow=none;endFill=0;strokeColor=#545B64;rounded=0;fontSize=18;fontColor=#1C1C1C;curved=1;exitX=1;exitY=0.75;exitDx=0;exitDy=0;" parent="1" source="P7QYEdc5I89qMnDsK5VT-1" target="P7QYEdc5I89qMnDsK5VT-61" edge="1">
          <mxGeometry width="100" relative="1" as="geometry">
            <mxPoint x="459" y="-49" as="sourcePoint"/>
            <mxPoint x="559" y="-49" as="targetPoint"/>
          </mxGeometry>
        </mxCell>
        <mxCell id="kIOQRBbGuSlXwWSxel3x-1" value="Bastion Box" style="text;html=1;resizable=0;autosize=1;align=center;verticalAlign=middle;points=[];fillColor=none;strokeColor=none;rounded=0;" vertex="1" parent="1">
          <mxGeometry x="163" y="20" width="74" height="18" as="geometry"/>
        </mxCell>
        <mxCell id="kIOQRBbGuSlXwWSxel3x-2" value="NAT Instance" style="text;html=1;resizable=0;autosize=1;align=center;verticalAlign=middle;points=[];fillColor=none;strokeColor=none;rounded=0;" vertex="1" parent="1">
          <mxGeometry x="312.5" y="-36" width="82" height="18" as="geometry"/>
        </mxCell>
      </root>
    </mxGraphModel>
  </diagram>
</mxfile>
